# xmcd
#
# Track frame offsets: 
#        150
#        9677
#        23192
#        37287
#        46262
#        57342
#        74195
#        89372
#        102722
#        114617
#        133597
#        150022
#        159892
#        175742
#        189895
#        205380
#        219640
#        235910
#
# Disc length: 3335 seconds
#
# Revision: 2
# Processed by: cddbd v1.5.1PL2 Copyright (c) Steve Scherf et al.
# Submitted via: ExactAudioCopy v0.95b4
#
DISCID=fc0d0512
DTITLE=Various Artist - The Old Style Love Song 4
DYEAR=1900
DGENRE=Oldies
TTITLE0=Beatles - Yesterday
TTITLE1=Peter Paul and Mary - Blowing In The Wind
TTITLE2=Tom Jones - Green Green Grass Of Home
TTITLE3=Everly Brothers - Crying In The Rain
TTITLE4=Bobby Vee - More Than I Can Say
TTITLE5=Corpenters - Jambalaya
TTITLE6=Tie A Yellow Ribbon Round The Old Oak Tree
TTITLE7=Ray Penterson - Tell Laura I Love Her
TTITLE8=Marianne Faithful - As Tears Go By
TTITLE9=Ray Charles - I Can´t Stop Loving You
TTITLE10=Rightous Brothers - Unchained Melody
TTITLE11=Mitch Miller - You´re My Sunshine
TTITLE12=Juice Newton - Angle Of The Morning
TTITLE13=Elvis Presley - Are You Lonesome Tonight
TTITLE14=Nat King Cole - Too Young
TTITLE15=Bee Gees - I Started A Joke
TTITLE16=Brother Four - Where Have All The Flowers Gone
TTITLE17=Sandpipers - Guantanamara
EXTD=ID3G:  17
EXTT0=Yesterterday
EXTT1=
EXTT2=
EXTT3=
EXTT4=
EXTT5=
EXTT6=
EXTT7=
EXTT8=
EXTT9=I Can't Stop Loving You
EXTT10=
EXTT11=
EXTT12=
EXTT13=
EXTT14=
EXTT15=
EXTT16=
EXTT17=
PLAYORDER=
